# xmcd CD database file
#
# Track frame offsets:
#	150
#	37715
#	53027
#	85254
#	98895
#	117894
#	141808
#	161749
#	181733
#	198449
#	215116
#	234532
#	248866
#	270944
#	287341
#	311627
#
# Disc length: 4438 seconds
#
# Revision: 1
# Processed by: cddbd v1.5.1PL2 Copyright (c) Steve Scherf et al.
# Submitted via: CDex 1.50beta10
#
DISCID=d7115410
DTITLE=Alabama - Livin' Lovin' Rockin' Rollin' - The 25th Anniversary Collection
DYEAR=2006
DGENRE=Country
TTITLE0=My Home's in Alabama (Live)
TTITLE1=Forty Hour Week (For a Livin')
TTITLE2=Medley - That Silver Haired Daddy of Mine, Suppertime, Teach Your Children, Don't it Make You Want To Go Home
TTITLE3=High Cotton
TTITLE4=Mountain Music
TTITLE5=Dixieland Delight (Live)
TTITLE6=Carolina Mountain Dewe
TTITLE7=Roll On (Eighteen Wheeler)
TTITLE8=If You're Gonna Play in Texas (You Gotta Have a Fiddle in the Band) (Live)
TTITLE9=Christmas in Dixie
TTITLE10=I Write a Little
TTITLE11=Song of the South
TTITLE12=Pass it on Down
TTITLE13=Five O'Clock 500
TTITLE14=Tar Top (Live)
TTITLE15=Dancin', Shaggin' on the Boulevard
EXTD=YEAR: 2006
EXTT0=
EXTT1=
EXTT2=
EXTT3=
EXTT4=
EXTT5=
EXTT6=
EXTT7=
EXTT8=
EXTT9=
EXTT10=
EXTT11=
EXTT12=
EXTT13=
EXTT14=
EXTT15=
PLAYORDER=
